<svg xmlns="http://www.w3.org/2000/svg" style="fill: #fff" viewBox="0 0 230.63 175.89">
  <defs>
    <style>
      .cls-1{fill-rule:evenodd}
    </style>
  </defs>
  <g id="Layer_2" data-name="Layer 2">
    <g id="Layer_1-2" data-name="Layer 1">
      <path d="M107.02 65.56l-.01.06M107.02 65.56l-.01.06"/>
      <path class="cls-1" d="M123.86 79.92a29.34 29.34 0 0 0-5.49-1.49 19.28 19.28 0 0 0-2-.11 15.9 15.9 0 0 0-2 0c-.46 0-4.1-1-5.7-3.28a12.13 12.13 0 0 1-2.12-6.94 12.48 12.48 0 0 1 4-9.28c2.66-2.51 5.85-3.18 10.68-3.28 7.55.54 8.85-3.14 9.88-4.13.11-.11.66.09.65.27-.12 1.35-1.54 3.69-1.19 9.39.1 1.64.45 3.6.75 5.91l-1.63.37a18.56 18.56 0 0 0-2.91-6.66c-1.39-2-3-3-6.21-3.12-2.84.09-4.93.93-6.26 2.54a8.3 8.3 0 0 0-2 5.55 8.73 8.73 0 0 0 2.69 6.45 21.68 21.68 0 0 0 6.31 4.55 60.11 60.11 0 0 1 5.92 3.34 14 14 0 0 1 6.83 12.12 11.79 11.79 0 0 1-4.46 9.33 14.32 14.32 0 0 1-5.85 3.21l1.31-3.66c.23-.2.3-.27.58-.55A9 9 0 0 0 128 94c0-5.19-2-7.11-2.66-7.57-.08-.6-1.48-6.51-1.48-6.51z"/>
      <path class="cls-1" d="M123.57 83.32l-.49-2.83a26.82 26.82 0 0 0-4.83-1.29 17.29 17.29 0 0 0-2.1-.12 16.24 16.24 0 0 0-1.89.12 16.77 16.77 0 0 0-5.6 1.59 13.06 13.06 0 0 0-5.35 4.78 14 14 0 0 0-.5 13.43 12 12 0 0 0 4.61 4.89 15.47 15.47 0 0 0 8 2 24.72 24.72 0 0 0 4.27-.42c1.38-.25 2.37-.45 3-.6a24.18 24.18 0 0 0 1.18-2.85c.42-1.18.77-2.25 1.07-3.22l-1.15-.39a13.26 13.26 0 0 1-3.29 4.5 7.32 7.32 0 0 1-4.83 1.57c-3-.06-4.84-1.22-6.73-3.46a15 15 0 0 1-1.76-14.64 10.18 10.18 0 0 1 3.4-4.23 7.44 7.44 0 0 1 4.86-1.64 8.12 8.12 0 0 1 5 1.37 7.74 7.74 0 0 1 2.64 4.5l1-.26c.02-.35-.44-2.29-.51-2.8z"/>
      <path class="cls-1" d="M103.17 84.46c1.71-3.11 6.5-5.5 7.92-5.85-1-.5-5.31-3.3-5.08-9.84-1.01 6.81-3.01 15.96-2.84 15.69zM101.28 97.35V97.05c-1 5.84-1.27 5.41-1.46 5.61-.61.66-2 1-4.21 1.12v1.59h12.79v-.28c-1.69-.09-6.7-3.16-7.12-7.74zM130.81 50.73l.43-.61a11.44 11.44 0 0 0 1.64-6.12 10.9 10.9 0 0 0-1-4.77c-.64-1.32-2.82-5.59-6.12-5.59h-20.2v1.58c1.39.07 4.17-.46 4.82 1.51.43 1.27-.14 3.59-.15 4.48 0 0-1.77 10.43-3.68 23.4a12.64 12.64 0 0 1 3.94-6.71 10.56 10.56 0 0 1 3-2 20 20 0 0 1 7.71-1.3c6.92.48 8.59-2.6 9.61-3.87zm-15.28-12v-3.12a17.48 17.48 0 0 1 3.69-.2 7.85 7.85 0 0 1 5.65 2.08q2.46 2.11 2.55 6.69a10.76 10.76 0 0 1-1.32 5.61 7 7 0 0 1-3.1 2.84c-1.26.54-8.09.58-8.47.43zM119.05 7.07l.06-.2h.79l.07.2.42-.49-.45-2.17h-.96l-.43 2.17.5.49zM119.08 4.14h.79s-.17-.46-.4-.46-.39.46-.39.46zM119.46 0l-.17 3.55a.35.35 0 0 1 .21-.08.32.32 0 0 1 .16.08zM118.73 22.15l-2 8.82h5.52l-1.84-8.82zm-2.24-2h-.66v1.06l.46 1-2 8.82h-1v.72l.45 1.35h11.66l.45-1.35V31h-1l-2-8.82.46-1v-1.07h-6.73zM120.02 19.79h2.34L119.8 7.16h-.55l-2.57 12.63h2.4l.44-2.14.5 2.14zM128.54 105.37h-1.25v-1.29a13.5 13.5 0 0 0 7.62-9.81c.69-4.08-.94-8.08-2.23-10.49-.89-4.94-1.74-9.18-2.69-15.65l1.64-.33c2.74 18.57 6.69 34 7 34.4a6.34 6.34 0 0 0 4.28 1.45v1.72z"/>
      <path d="M29.32 139.06c0 12.69-7.72 17.5-20.19 17.5A22.06 22.06 0 0 1 0 154.89l.59-9.62a16.58 16.58 0 0 0 6.75 1.24c6.11 0 9.24-2.32 9.24-7.56v-23.7h12.74zM73.28 140.14c0 10.8-6.43 16.42-19.33 16.42S34.4 151 34.4 140.14v-24.89H47v24.84c0 4.1 2 6.1 6.92 6.1s6.75-1.89 6.75-6.1v-24.84h12.61zM108.86 155.75l-16.36-19-2.75-3.4h-.11v22.38H78.35v-40.5h10.37l14.64 17.6 2.75 3.4.11-.05-.11-4.32v-16.61h11.29v40.5zM158.38 154.4a44.73 44.73 0 0 1-13.88 2.16c-16.52 0-22.89-7.89-22.89-20.95 0-13.23 6.8-21.12 23-21.12a46.53 46.53 0 0 1 13.23 1.84l-1.18 10a39.83 39.83 0 0 0-11.34-1.73c-8.54 0-10.43 2.65-10.43 10.75 0 8.48 2 10.91 9.18 10.91a16 16 0 0 0 3.19-.27V134h11.07zM194.13 145.38l-.22 10.37h-30.67v-40.5h12.69v30.13zM230.63 145.76l-.21 10h-33.16v-40.5h32.35l.21 10.1H209.9v5.4h16.47v8.85H209.9v6.16zM25.66 173.27h-1.52v2.48h-1.56v-7.5h3.08c2.24 0 3.17.89 3.17 2.55s-.93 2.47-3.17 2.47zm0-3.76h-1.53v2.56h1.53c1.07 0 1.57-.29 1.57-1.28s-.47-1.28-1.57-1.28zM30.86 168.25h1.58v7.5h-1.58zM37.25 175.89a5.79 5.79 0 0 1-2.65-.6l.2-1.33a5.21 5.21 0 0 0 2.47.63c1.08 0 1.59-.39 1.59-1 0-1.35-4.21-.59-4.21-3.21 0-1.22.86-2.28 3-2.28a7.05 7.05 0 0 1 2.42.42l-.19 1.28a7.13 7.13 0 0 0-2.18-.37c-1.2 0-1.55.42-1.55.86 0 1.32 4.2.51 4.2 3.19-.01 1.52-1.14 2.41-3.1 2.41zM47.72 169.78a5.64 5.64 0 0 0-1.84-.31c-1.76 0-2.39.67-2.39 2.49s.65 2.59 2.42 2.59a4.61 4.61 0 0 0 1.82-.36l.19 1.22a5.69 5.69 0 0 1-2.21.48c-2.61 0-3.86-1.33-3.86-3.93 0-2.44 1.22-3.85 4-3.85a6.29 6.29 0 0 1 2.07.36zM58.61 174.27v1.48h-1.38v-1.48h-3.95l-.12-.9 3.65-5.12h1.8V173h1v1.25zm-1.28-4v-.81l-.45.68-1.54 2.22-.47.63h2.37zM63 168.85v3.57h-.9v-3.57h-1.45v-.8h3.78v.8zM68.49 172.42v-1.84h-2.15v1.84h-.91v-4.37h.91v1.73h2.15v-1.73h.91v4.37zM80.87 174.43v1.32H75v-7.5h5.66v1.34h-4.11v1.71h3.51v1.18h-3.51v2zM86.08 175.75h-3.24v-7.5h3.22c2.68 0 3.81 1.26 3.81 3.73 0 2.63-1.31 3.77-3.79 3.77zm0-6.13H84.4v4.77H86c1.54 0 2.21-.51 2.21-2.41s-.58-2.36-2.21-2.36zM92.07 168.25h1.58v7.5h-1.58zM99.48 169.62v6.13h-1.56v-6.13h-2.49v-1.37H102v1.37zM103.76 168.25h1.58v7.5h-1.58zM111.31 175.89c-2.68 0-3.77-1.35-3.77-3.89s1.07-3.87 3.77-3.87 3.77 1.33 3.77 3.87-1.08 3.89-3.77 3.89zm0-6.42c-1.56 0-2.13.62-2.13 2.53s.57 2.54 2.14 2.54 2.13-.64 2.13-2.54-.56-2.53-2.14-2.53zM123 175.75l-3.88-4.61-.51-.63v5.23h-1.4v-7.5h1.33l4.14 5v-5.03H124v7.5zM135 174.67h1.43v-4.6l-1.71 1-.14-1.27 2.46-1.55h.96v6.44h1.39v1.08H135zM144.76 175.85c-2.06 0-3.18-1.13-3.18-3.67s1.28-4 3.7-4a5.62 5.62 0 0 1 2 .33l-.11 1.25a4.87 4.87 0 0 0-1.71-.28c-1.54 0-2.29.67-2.45 2a4 4 0 0 1 2-.52c1.86 0 2.75.75 2.75 2.23.02 1.71-1.05 2.66-3 2.66zm0-3.82a2.73 2.73 0 0 0-1.68.58c0 1.39.5 2 1.67 2a1.34 1.34 0 0 0 1.54-1.45c.02-.73-.42-1.16-1.51-1.16zM158 171.51v1h-4.6v-1zM165.93 174.43h3.66v1.29h-5.68v-1c2.23-1.83 4.15-3 4.15-4.21 0-.59-.48-1.06-1.62-1.06a3.91 3.91 0 0 0-2.2.73l-.38-1.21a4.93 4.93 0 0 1 2.84-.84c1.93 0 2.91.93 2.91 2.24-.04 1.54-1.52 2.63-3.68 4.06zM173.89 174.43h3.66v1.29h-5.68v-1c2.23-1.83 4.15-3 4.15-4.21 0-.59-.48-1.06-1.62-1.06a3.91 3.91 0 0 0-2.2.73l-.38-1.21a4.93 4.93 0 0 1 2.84-.84c1.93 0 2.91.93 2.91 2.24-.04 1.54-1.52 2.63-3.68 4.06zM192.43 174.18h-3.67l-.6 1.57h-1.66l3.22-7.5h1.8l3.24 7.5H193zm-2.11-4.08l-1.08 2.83H192l-1.07-2.83-.26-.77zM199.45 173.27h-1.52v2.48h-1.56v-7.5h3.08c2.24 0 3.16.89 3.16 2.55s-.92 2.47-3.16 2.47zm0-3.76h-1.53v2.56h1.53c1.07 0 1.57-.29 1.57-1.28s-.47-1.28-1.57-1.28zM209.07 172.6l2.16 3.15h-1.84l-1.71-2.84h-1.6v2.84h-1.56v-7.5h3.19c2 0 2.94.78 2.94 2.29a1.94 1.94 0 0 1-1.58 2.06zm-1.39-3.1h-1.6v2.28h1.55c1 0 1.41-.32 1.41-1.17s-.39-1.11-1.36-1.11zM213 168.25h1.58v7.5H213zM222.66 174.38v1.37h-5.45v-7.5h1.56v6.13zM24.58 83.8h-2.4v5.85h-4.06v-18h6.46c5 0 7 2 7 6.17.03 3.79-1.98 5.98-7 5.98zm0-8.76h-2.4v5.52h2.4c2 0 2.86-.51 2.86-2.76s-.77-2.8-2.86-2.8zM44.21 86.15h-6.53l-1 3.5H32.4l6.22-18h4.82l6.29 18h-4.51zm-3.74-9.55l-1.8 6.17h4.58l-1.73-6.17-.52-1.9zM63.05 82.14l4.2 7.51h-4.73l-3.14-6.72h-2.54v6.72h-4.06v-18h6.6c4.46 0 6.7 1.76 6.7 5.6 0 2.52-1.08 4.29-3.03 4.89zM59.4 75h-2.56v4.9h2.49c1.8 0 2.52-.55 2.52-2.5S61.18 75 59.4 75zM70.56 71.65h4.13v18h-4.13zM84.36 90a11.78 11.78 0 0 1-5.56-1.34l.52-3.48a10.52 10.52 0 0 0 5 1.32c2 0 2.83-.72 2.83-2 0-2.83-8.28-1.63-8.28-7.66 0-3 2-5.52 6.53-5.52a13.91 13.91 0 0 1 5 .94l-.51 3.41a14.41 14.41 0 0 0-4.34-.77c-2.23 0-2.83.77-2.83 1.73 0 2.8 8.28 1.51 8.28 7.6 0 3.58-2.44 5.77-6.64 5.77zM18.18 94.66h1.12v6h-1.12zM25 100.65L22.47 97l-.36-.54v4.18h-1v-6h1l2.39 3.5.36.54v-4.02h1v6zM29.79 95.68v5h-1.12v-5H27v-1h4.45v1zM36.64 99.67v1h-4v-6h3.86v1h-2.74v1.43h2.34v.9h-2.34v1.66zM41.15 98.08l1.48 2.57h-1.29l-1.19-2.35h-1v2.35H38v-6h2.12c1.4 0 2.08.57 2.08 1.8a1.47 1.47 0 0 1-1.05 1.63zm-1-2.48h-1v1.84h1c.68 0 1-.22 1-.94s-.33-.9-1-.9zM47.71 100.65L45.15 97l-.36-.54v4.18h-1v-6h1l2.39 3.5.36.54v-4.02h1v6zM53.62 99.37h-2.4l-.4 1.28h-1.18l2.14-6h1.32l2.15 6H54zm-1.39-3.28l-.72 2.34h1.82l-.72-2.34-.17-.62zM58.17 95.68v5h-1.12v-5h-1.69v-1h4.44v1zM61.13 94.66h1.12v6h-1.12zM66.39 100.77c-1.81 0-2.57-1-2.57-3.11s.73-3.1 2.57-3.1 2.61.94 2.61 3.1-.78 3.11-2.61 3.11zm0-5.19c-1 0-1.41.42-1.41 2.08s.38 2.09 1.41 2.09 1.41-.45 1.41-2.09-.37-2.08-1.41-2.08zM74.34 100.65L71.79 97l-.36-.54v4.18h-1v-6h1l2.39 3.5.36.54v-4.02h1v6zM80.25 99.37h-2.4l-.4 1.28h-1.17l2.13-6h1.32l2.15 6h-1.24zm-1.38-3.28l-.73 2.34H80l-.72-2.34-.17-.62zM86.76 99.64v1H83v-6h1.12v5zM151.58 90a11.79 11.79 0 0 1-5.58-1.35l.53-3.48a10.48 10.48 0 0 0 5 1.32c2 0 2.83-.72 2.83-2 0-2.83-8.28-1.63-8.28-7.66 0-3 2-5.52 6.53-5.52a13.87 13.87 0 0 1 5 .94l-.5 3.41a14.47 14.47 0 0 0-4.35-.77c-2.23 0-2.83.77-2.83 1.73 0 2.8 8.28 1.51 8.28 7.6.04 3.59-2.43 5.78-6.63 5.78zM171.67 86.15h-6.53l-1 3.5h-4.27l6.22-18h4.82l6.29 18h-4.51zm-3.75-9.55l-1.8 6.17h4.59L169 76.6l-.48-1.9h-.07zM191.73 86l-.09 3.64h-11.4v-18h4.08V86zM199.87 90a11.79 11.79 0 0 1-5.57-1.34l.53-3.48a10.45 10.45 0 0 0 5 1.32c2 0 2.83-.72 2.83-2 0-2.83-8.28-1.63-8.28-7.66 0-3 2-5.52 6.53-5.52a13.87 13.87 0 0 1 5 .94l-.5 3.41a14.47 14.47 0 0 0-4.35-.77c-2.23 0-2.83.77-2.83 1.73 0 2.8 8.28 1.51 8.28 7.6.03 3.58-2.44 5.77-6.64 5.77zM220 86.15h-6.53l-1 3.5h-4.27l6.21-18h4.83l6.29 18H221zm-3.75-9.55l-1.8 6.17H219l-1.73-6.17-.48-1.9h-.07zM160.84 95.79a3.49 3.49 0 0 0-1.21-.22c-1.17 0-1.61.5-1.61 2.05s.45 2.15 1.63 2.15a3 3 0 0 0 1.21-.26l.12.92a3.57 3.57 0 0 1-1.47.34c-1.8 0-2.65-1-2.65-3.16s.84-3 2.71-3a3.78 3.78 0 0 1 1.39.26zM164.51 100.77c-1.82 0-2.58-1-2.58-3.11s.74-3.1 2.58-3.1 2.55.94 2.55 3.1-.72 3.11-2.55 3.11zm0-5.19c-1 0-1.41.42-1.41 2.08s.38 2.09 1.42 2.09 1.4-.45 1.4-2.09-.37-2.08-1.42-2.08zM172.46 100.65L169.9 97l-.36-.54v4.18h-1v-6h1l2.39 3.5.36.54v-4h1v6zM179.26 100.43a4.61 4.61 0 0 1-1.77.34c-2 0-2.78-1-2.78-3.1s.85-3.11 2.81-3.11a5 5 0 0 1 1.62.27l-.11 1a3.9 3.9 0 0 0-1.45-.27c-1.26 0-1.71.48-1.71 2.11s.42 2.09 1.59 2.09a2.91 2.91 0 0 0 .82-.11v-2.2h1zM183.91 98.08l1.47 2.57h-1.29l-1.18-2.35h-1v2.35h-1.1v-6h2.12c1.4 0 2.08.57 2.08 1.8a1.47 1.47 0 0 1-1.1 1.63zm-1-2.48h-1v1.84h1c.68 0 1-.22 1-.94s-.34-.9-1-.9zM190.54 99.67v1h-4v-6h3.84v1h-2.75v1.43H190v.9h-2.33v1.66zM193.43 100.77a3.67 3.67 0 0 1-1.81-.45l.15-1a3.31 3.31 0 0 0 1.65.44c.74 0 1.09-.29 1.09-.81 0-1.13-2.86-.64-2.86-2.65 0-1 .63-1.76 2.08-1.76a4.21 4.21 0 0 1 1.64.31l-.14 1a4.13 4.13 0 0 0-1.44-.28c-.82 0-1.08.33-1.08.72 0 1.09 2.86.59 2.86 2.63 0 1.14-.78 1.85-2.14 1.85zM198.31 100.77a3.67 3.67 0 0 1-1.81-.45l.15-1a3.31 3.31 0 0 0 1.65.44c.74 0 1.09-.29 1.09-.81 0-1.13-2.86-.64-2.86-2.65 0-1 .63-1.76 2.08-1.76a4.21 4.21 0 0 1 1.64.31l-.14 1a4.13 4.13 0 0 0-1.44-.28c-.82 0-1.08.33-1.08.72 0 1.09 2.86.59 2.86 2.63 0 1.14-.78 1.85-2.14 1.85zM205.84 99.66h2.53v1h-3.92v-.72c1.49-1.44 2.83-2.54 2.83-3.52 0-.48-.32-.83-1.1-.83a2.46 2.46 0 0 0-1.49.55l-.27-.9a3.21 3.21 0 0 1 2-.64c1.32 0 2 .68 2 1.71s-1.1 2.11-2.58 3.35zM211.91 100.74c-1.55 0-2.18-.89-2.18-3.07s.64-3.08 2.19-3.08 2.18.82 2.18 3.08-.66 3.07-2.19 3.07zm0-5.19c-.78 0-1.14.37-1.14 2.11s.36 2.13 1.14 2.13 1.13-.36 1.13-2.13-.34-2.11-1.12-2.11zM216.27 99.86h1v-3.85l-.55.35-.62.37-.1-.93 1.74-1.15h.65v5.21h.94v.79h-3zM222.68 100.73a3.28 3.28 0 0 1-1.46-.28l.15-.9a3 3 0 0 0 1.21.24c1 0 1.47-.53 1.54-1.81a2.14 2.14 0 0 1-1.31.38 1.69 1.69 0 0 1-1.92-1.81 1.81 1.81 0 0 1 2.08-2c1.39 0 2.2.92 2.2 2.8-.02 2.41-.84 3.38-2.49 3.38zm.25-5.22c-.68 0-1 .32-1 1s.32 1 1.09 1a1.35 1.35 0 0 0 1.08-.51c-.02-1.09-.47-1.49-1.17-1.49z"/>
    </g>
  </g>
</svg>